<svg width="286" height="98" viewBox="0 0 286 98" fill="none" xmlns="http://www.w3.org/2000/svg">
<path d="M0.217329 96V1.45454H63.9247V17.9354H20.2067V40.4638H60.647V56.9446H20.2067V79.5192H64.1094V96H0.217329ZM79.8169 1.45454H104.469L130.506 64.9773H131.614L157.651 1.45454H182.303V96H162.914V34.4624H162.129L137.661 95.5384H124.458L99.9909 34.2315H99.2061V96H79.8169V1.45454ZM285.654 48.7273C285.654 59.0374 283.7 67.8087 279.791 75.0412C275.913 82.2737 270.62 87.7981 263.911 91.6143C257.232 95.3999 249.723 97.2926 241.382 97.2926C232.98 97.2926 225.44 95.3845 218.761 91.5682C212.083 87.7519 206.805 82.2275 202.927 74.995C199.049 67.7625 197.11 59.0066 197.11 48.7273C197.11 38.4171 199.049 29.6458 202.927 22.4134C206.805 15.1809 212.083 9.67187 218.761 5.88636C225.44 2.07007 232.98 0.161928 241.382 0.161928C249.723 0.161928 257.232 2.07007 263.911 5.88636C270.62 9.67187 275.913 15.1809 279.791 22.4134C283.7 29.6458 285.654 38.4171 285.654 48.7273ZM265.388 48.7273C265.388 42.0488 264.388 36.4167 262.387 31.831C260.417 27.2453 257.632 23.7675 254.031 21.3977C250.43 19.0279 246.214 17.843 241.382 17.843C236.55 17.843 232.334 19.0279 228.733 21.3977C225.132 23.7675 222.331 27.2453 220.331 31.831C218.361 36.4167 217.376 42.0488 217.376 48.7273C217.376 55.4058 218.361 61.0379 220.331 65.6236C222.331 70.2093 225.132 73.687 228.733 76.0568C232.334 78.4266 236.55 79.6115 241.382 79.6115C246.214 79.6115 250.43 78.4266 254.031 76.0568C257.632 73.687 260.417 70.2093 262.387 65.6236C264.388 61.0379 265.388 55.4058 265.388 48.7273Z" fill="black"/>
</svg>
